<svg width="79" height="106" viewBox="0 0 79 106" fill="none" xmlns="http://www.w3.org/2000/svg">
<rect width="79" height="106" fill="#F5F5F5"/>
<path d="M49.7363 74.7463L74.8701 49.6126C80.3767 44.106 80.3767 35.0595 74.8701 29.5134L49.7363 4.37974C44.2297 -1.12686 35.1832 -1.12686 29.6372 4.37974L4.50349 29.5134C-1.00311 35.0201 -1.00311 44.0667 4.50349 49.6126L29.6372 74.7463C35.1832 80.2529 44.2297 80.2529 49.7363 74.7463Z" fill="#011C40"/>
<path d="M46.4376 71.0002L63.3214 54.1165C67.0204 50.4174 67.0204 44.3404 63.3214 40.6148L46.4376 23.7311C42.7385 20.032 36.6615 20.032 32.9359 23.7311L16.0522 40.6148C12.3531 44.3139 12.3531 50.391 16.0522 54.1165L32.9359 71.0002C36.6615 74.6993 42.7385 74.6993 46.4376 71.0002Z" fill="#A7EBF2"/>
<path d="M46.4376 102.852L63.3214 85.9685C67.0204 82.2694 67.0204 76.1923 63.3214 72.4667L46.4376 55.583C42.7385 51.8839 36.6615 51.8839 32.9359 55.583L16.0522 72.4667C12.3531 76.1659 12.3531 82.243 16.0522 85.9685L32.9359 102.852C36.6615 106.551 42.7385 106.551 46.4376 102.852Z" fill="#011C40"/>
<line x1="39" y1="46" x2="39" y2="36" stroke="#011C40" stroke-width="2" stroke-linecap="round"/>
<path d="M39 46L51.6404 55.8092" stroke="#011C40" stroke-width="2" stroke-linecap="round"/>
<line x1="39.5" y1="26.5" x2="39.5" y2="22.5" stroke="#011C40" stroke-linecap="round"/>
<line x1="18.5" y1="46.5" x2="14.5" y2="46.5" stroke="#011C40" stroke-linecap="round"/>
<line x1="64.5" y1="46.5" x2="60.5" y2="46.5" stroke="#011C40" stroke-linecap="round"/>
</svg>
