<svg width="228" height="150" viewBox="0 0 228 150" fill="none" xmlns="http://www.w3.org/2000/svg">
<rect width="228" height="150" fill="#F5F5F5"/>
<path d="M124.363 74.4965L149.497 49.3628C155.003 43.8562 155.003 34.8097 149.497 29.2636L124.363 4.12995C118.856 -1.37665 109.81 -1.37665 104.264 4.12995L79.13 29.2636C73.6234 34.7703 73.6234 43.8169 79.13 49.3628L104.264 74.4965C109.81 80.0031 118.856 80.0031 124.363 74.4965Z" fill="#011C40"/>
<path d="M121.064 70.7504L137.948 53.8667C141.647 50.1676 141.647 44.0906 137.948 40.365L121.064 23.4813C117.365 19.7822 111.288 19.7822 107.562 23.4813L90.6787 40.365C86.9796 44.0641 86.9796 50.1412 90.6787 53.8667L107.562 70.7504C111.288 74.4495 117.365 74.4495 121.064 70.7504Z" fill="#A7EBF2"/>
<path d="M121.064 102.602L137.948 85.7187C141.647 82.0196 141.647 75.9425 137.948 72.2169L121.064 55.3332C117.365 51.6342 111.288 51.6342 107.562 55.3332L90.6787 72.2169C86.9796 75.9161 86.9796 81.9932 90.6787 85.7187L107.562 102.602C111.288 106.301 117.365 106.301 121.064 102.602Z" fill="#011C40"/>
<line x1="113.626" y1="45.7502" x2="113.626" y2="35.7502" stroke="#011C40" stroke-width="2" stroke-linecap="round"/>
<path d="M113.626 45.7502L126.267 55.5594" stroke="#011C40" stroke-width="2" stroke-linecap="round"/>
<line x1="114.126" y1="26.2502" x2="114.126" y2="22.2502" stroke="#011C40" stroke-linecap="round"/>
<line x1="93.1265" y1="46.2502" x2="89.1265" y2="46.2502" stroke="#011C40" stroke-linecap="round"/>
<line x1="139.126" y1="46.2502" x2="135.126" y2="46.2502" stroke="#011C40" stroke-linecap="round"/>
<path d="M4.1875 120.5C5.03125 120.531 5.75 120.844 6.34375 121.438C6.9375 122 7.25 122.703 7.28125 123.547V146.516C7.09375 148.391 6.0625 149.406 4.1875 149.562C3.3125 149.562 2.54688 149.281 1.89062 148.719C1.26562 148.125 0.953125 147.391 0.953125 146.516V123.547C0.984375 122.672 1.3125 121.953 1.9375 121.391C2.5625 120.797 3.3125 120.5 4.1875 120.5ZM12.2031 128.75C14.2969 127.344 17.125 125.922 20.6875 124.484L28.375 121.203C28.7188 121.047 29.0938 120.953 29.5 120.922C30.375 120.859 31.125 121.125 31.75 121.719C32.375 122.281 32.6875 123.016 32.6875 123.922C32.6875 124.953 32.4688 125.719 32.0312 126.219C31.625 126.688 31.0938 127.078 30.4375 127.391L23.875 129.875C22.5938 130.375 21.375 130.875 20.2188 131.375C19.0938 131.844 18.0625 132.391 17.125 133.016C16.1875 133.578 15.6875 134.219 15.625 134.938C15.6875 135.625 16.1875 136.266 17.125 136.859C18.0625 137.484 19.0938 138.047 20.2188 138.547C21.375 139.016 22.5938 139.5 23.875 140L31.1875 142.672C31.8438 142.984 32.375 143.391 32.7812 143.891C33.2188 144.359 33.4375 145.109 33.4375 146.141C33.4375 147.047 33.125 147.797 32.5 148.391C31.875 148.953 31.125 149.203 30.25 149.141C29.8438 149.109 29.4688 149.016 29.125 148.859L20.6875 145.391C17.125 143.953 14.2812 142.531 12.1562 141.125C10.0625 139.688 9 137.625 8.96875 134.938C9 132.25 10.0781 130.188 12.2031 128.75ZM41.4062 127.156C42.25 127.188 42.9688 127.5 43.5625 128.094C44.1562 128.656 44.4688 129.359 44.5 130.203V146.422C44.3125 148.297 43.2812 149.312 41.4062 149.469C40.5312 149.469 39.7656 149.188 39.1094 148.625C38.4844 148.031 38.1719 147.297 38.1719 146.422V130.203C38.2031 129.328 38.5312 128.609 39.1562 128.047C39.7812 127.453 40.5312 127.156 41.4062 127.156ZM37.4688 121.062C37.4688 120.188 37.8438 119.438 38.5938 118.812C39.3438 118.188 40.25 117.875 41.3125 117.875C42.375 117.875 43.2812 118.188 44.0312 118.812C44.7812 119.438 45.1562 120.188 45.1562 121.062C45.1562 121.969 44.7812 122.734 44.0312 123.359C43.2812 123.984 42.375 124.297 41.3125 124.297C40.25 124.297 39.3438 123.984 38.5938 123.359C37.8438 122.734 37.4688 121.969 37.4688 121.062ZM60.3906 120.5C61.2656 120.5 62.0156 120.797 62.6406 121.391C63.2656 121.953 63.5938 122.672 63.625 123.547V127.625H79.5625C80.4375 127.625 81.1875 127.922 81.8125 128.516C82.4062 129.141 82.7031 129.891 82.7031 130.766C82.7031 131.641 82.3906 132.391 81.7656 133.016C81.1719 133.609 80.4375 133.906 79.5625 133.906H63.625V134.844C63.5938 136.125 63.6719 137.312 63.8594 138.406C64.0781 139.469 64.5781 140.422 65.3594 141.266C66.1406 142.109 67.125 142.562 68.3125 142.625H79.75C80.625 142.656 81.3438 142.984 81.9062 143.609C82.5 144.234 82.7969 144.984 82.7969 145.859C82.7656 146.703 82.4531 147.422 81.8594 148.016C81.2969 148.578 80.5938 148.875 79.75 148.906H66.7188C64.5312 148.781 62.7188 148.047 61.2812 146.703C59.875 145.328 58.8594 143.656 58.2344 141.688C57.6406 139.719 57.3281 137.625 57.2969 135.406V133.906H51.9062C51.0312 133.906 50.2969 133.594 49.7031 132.969C49.0781 132.375 48.7656 131.641 48.7656 130.766C48.7656 129.891 49.0625 129.156 49.6562 128.562C50.2812 127.938 51.0312 127.625 51.9062 127.625H57.2969V123.547C57.3281 122.703 57.6406 122 58.2344 121.438C58.8281 120.844 59.5469 120.531 60.3906 120.5ZM93.625 146.422C93.4375 148.297 92.4062 149.312 90.5312 149.469C89.6562 149.469 88.8906 149.188 88.2344 148.625C87.6094 148.031 87.2969 147.297 87.2969 146.422V124.297C87.3281 123.422 87.6562 122.703 88.2812 122.141C88.9062 121.547 89.6562 121.25 90.5312 121.25H110.219C112.969 121.344 115.047 121.953 116.453 123.078C117.859 124.172 118.875 125.422 119.5 126.828C120.125 128.234 120.438 129.656 120.438 131.094C120.438 132.594 120.125 134.047 119.5 135.453C118.906 136.859 117.891 138.125 116.453 139.25C115.047 140.344 113.25 140.875 111.062 140.844H99.25C98.375 140.844 97.6406 140.531 97.0469 139.906C96.4219 139.312 96.1094 138.578 96.1094 137.703C96.1094 136.828 96.4062 136.094 97 135.5C97.625 134.875 98.375 134.562 99.25 134.562H111.344C111.938 134.562 112.422 134.375 112.797 134C113.203 133.594 113.5 133.141 113.688 132.641C113.875 132.109 113.969 131.578 113.969 131.047C113.969 130.547 113.875 130.047 113.688 129.547C113.5 129.016 113.203 128.562 112.797 128.188C112.422 127.781 111.938 127.562 111.344 127.531H94.8438C94.0312 127.562 93.625 127.969 93.625 128.75V146.422ZM140.359 149.703C138.734 149.703 137.125 149.516 135.531 149.141C133.969 148.766 132.469 148.219 131.031 147.5C129.594 146.75 128.328 145.766 127.234 144.547C126.141 143.328 125.547 141.875 125.453 140.188V138.219V130.203C125.453 129.328 125.766 128.609 126.391 128.047C127.047 127.453 127.812 127.156 128.688 127.156C130.562 127.312 131.578 128.328 131.734 130.203V132.266V138.734C131.797 139.703 132.156 140.516 132.812 141.172C133.5 141.797 134.25 142.297 135.062 142.672C135.906 143.047 136.766 143.328 137.641 143.516C138.547 143.703 139.453 143.797 140.359 143.797C141.266 143.797 142.156 143.703 143.031 143.516C143.938 143.328 144.797 143.047 145.609 142.672C146.453 142.297 147.203 141.797 147.859 141.172C148.547 140.516 148.922 139.703 148.984 138.734V132.266V130.203C148.984 129.328 149.297 128.609 149.922 128.047C150.578 127.453 151.344 127.156 152.219 127.156C154.094 127.312 155.125 128.328 155.312 130.203V138.219V140.188C155.219 141.875 154.609 143.328 153.484 144.547C152.391 145.766 151.125 146.75 149.688 147.5C148.25 148.219 146.734 148.766 145.141 149.141C143.578 149.516 141.984 149.703 140.359 149.703ZM191.078 130.344C191.078 131.125 190.766 131.781 190.141 132.312C189.547 132.812 188.812 133.062 187.938 133.062H168.109C167.703 133.062 167.375 133.141 167.125 133.297C166.875 133.453 166.688 133.625 166.562 133.812C166.438 133.969 166.375 134.109 166.375 134.234C166.375 134.391 166.438 134.562 166.562 134.75C166.688 134.906 166.875 135.062 167.125 135.219C167.375 135.344 167.703 135.422 168.109 135.453H183.438C185.406 135.484 187.031 135.875 188.312 136.625C189.594 137.344 190.5 138.203 191.031 139.203C191.594 140.172 191.875 141.156 191.875 142.156C191.875 143.125 191.594 144.109 191.031 145.109C190.469 146.078 189.547 146.938 188.266 147.688C187.016 148.406 185.406 148.766 183.438 148.766C183.094 148.797 182.844 148.812 182.688 148.812H164.5C163.625 148.812 162.875 148.562 162.25 148.062C161.656 147.531 161.359 146.891 161.359 146.141C161.359 145.359 161.672 144.703 162.297 144.172C162.891 143.672 163.625 143.422 164.5 143.422H183.812C184.281 143.453 184.656 143.391 184.938 143.234C185.25 143.078 185.484 142.906 185.641 142.719C185.797 142.531 185.875 142.344 185.875 142.156C185.875 142.062 185.797 141.906 185.641 141.688C185.484 141.438 185.25 141.25 184.938 141.125C184.656 140.969 184.281 140.875 183.812 140.844H168.438C166.625 140.812 165.125 140.438 163.938 139.719C162.75 138.969 161.906 138.109 161.406 137.141C160.906 136.172 160.656 135.203 160.656 134.234C160.656 133.266 160.906 132.312 161.406 131.375C161.938 130.406 162.781 129.578 163.938 128.891C165.125 128.172 166.625 127.781 168.438 127.719C168.75 127.688 168.984 127.672 169.141 127.672H187.938C188.812 127.672 189.547 127.938 190.141 128.469C190.766 128.969 191.078 129.594 191.078 130.344ZM200.312 120.5C201.156 120.531 201.875 120.844 202.469 121.438C203.062 122 203.375 122.703 203.406 123.547V127.625H217.938C220.125 127.656 221.922 128.281 223.328 129.5C224.766 130.688 225.781 132.031 226.375 133.531C227 135.062 227.312 136.641 227.312 138.266H227.359V146.422C227.359 147.297 227.031 148.031 226.375 148.625C225.75 149.188 225 149.469 224.125 149.469C222.25 149.312 221.219 148.297 221.031 146.422V138.219C221.031 137.625 220.906 137 220.656 136.344C220.438 135.688 220.109 135.125 219.672 134.656C219.234 134.156 218.719 133.906 218.125 133.906H203.406V146.516C203.219 148.391 202.188 149.406 200.312 149.562C199.438 149.562 198.672 149.281 198.016 148.719C197.391 148.125 197.078 147.391 197.078 146.516V123.547C197.109 122.672 197.438 121.953 198.062 121.391C198.688 120.797 199.438 120.5 200.312 120.5Z" fill="#011C40"/>
</svg>
